<?xml version="1.0" encoding="UTF-8"?>
<svg id="Layer_2" data-name="Layer 2" xmlns="http://www.w3.org/2000/svg" viewBox="0 0 321.45 67.43">
  <defs>
    <style>
      .cls-1 {
        fill: #52b94f;
      }
    </style>
  </defs>
  <g id="Layer_1-2" data-name="Layer 1">
    <g>
      <path class="cls-1" d="M51.6,2.61c1.59,9.47,3.44,9.39,3.44,18.99,0,.78-1.76.39-2.19-.27-1.58-4.77-2.83-9.33-5.33-11.74-3.61-3.49-9.44-3.65-15.1-3.65-7.72,0-15.11,1.71-19.14,7.82-3.37,5.16-6,12.3-6,19.42,0,5.78,4.51,10.63,6.74,15.4,2.24,4.77,3.44,10.02,7.06,12.24,3.62,2.22,8.15,3.06,11.97,3.06,2.24,0,3.88-3.24,5.97-3.8,2.09-.57,5.19.56,7.12-.54.91-8.71-2.28-8.82-2.28-17.58,0-3.04-1.1-3.76-1.56-4.7-.46-.94.99-2.12.02-2.62-.97-.49-1.81-2.2-4.25-2.2-.7-.48-1.49-3.45-.65-3.51,11.7-.85,11.82,3.31,23.53,4.15.85.06,1.21-.27.74.44-.31.47-1.18.51-1.74.51-2.32,0-2.18.81-3.04,2.36-.6,1.1-1.82,2.32-1.82,5.57,0,9.28,3.51,9.87,1.97,19.02-3.43,1.85-10.3,0-13.64.87-3.34.86-6.34,3.24-10.42,3.24-11.71,0-20.23-3.27-26.31-10.78C2.13,48.65,0,42.46,0,35.1,0,29.76-.08,24.22,2.48,19.33c3.04-5.81,6.92-11.77,12.23-14.9C19.14,1.84,25.52,0,31.57,0c2.21,0,4.01,3.63,5.82,3.98,1.8.36,4.5.3,7.81,1.52,1.67.63,2.84-1.58,3.4-1.58s1.02,2.1,1.42,1.58c.4-.52-1.75-2.36-1.66-3.88.19-.53,3.1.17,3.24.99Z"/>
      <path class="cls-1" d="M85.26,22.9c6.2,0,11.73,1.33,15.48,6.03,3.19,4.02,3.9,9.08,3.9,14.3,0,3.67-1.61,6.88-3.37,10.63s-2.99,7.29-6.07,9.19c-3.08,1.91-6.64,1.41-10.43,1.41-6.17,0-9.71-2.22-13.34-7.14-3.07-4.14-6.66-7.78-6.66-12.94,0-3.75,2.57-7.01,4.44-10.72,1.86-3.71,3.72-6.31,6.76-8.08,3.04-1.77,5.89-2.7,9.29-2.7ZM83.87,24.63c-1.58,0-2.81,1.67-4.4,2.61-1.59.94-3.55,1.85-4.53,4.2-.98,2.35-2.35,5.51-2.35,9.2,0,5.96,2.57,10.99,4.94,15.31,2.37,4.32,5.28,7.84,9.16,7.84,2.89,0,6.61-1.39,8.48-3.78s.79-7.53.79-13.34c0-7.27-.02-13.63-3.15-17.8-2.12-2.86-5.67-4.24-8.95-4.24Z"/>
      <path class="cls-1" d="M172.53,33.76c4.2.89,8.81,1.38,10.9,3.34,2.89,2.74,3.19,6.81,3.19,10.78,0,3.01-1.84,4.96-3.75,7.71-1.91,2.76-3.05,6.01-6.38,7.28-3.32,1.27-8.51-.15-15.34-.15-14.3,0-14.19.21-28.47-.62-.83-.05-1.37.42-.7-.07.92-.67,1.71,2.27,2.85,2.27,2.53,0,5.19-1.73,6.29-3.34.69-1.04-1.69-3.83-1.69-7.22,0-19.58,2.43-19.58,2.43-39.16,0-3.75-2.21-5.04-3.07-6.03-1.16-1.31-1.67-.31-3.96-.31-1.14,0-1.86-1.38-2.78-2.05-.67-.49-.28-1.51.55-1.57,13.07-.83,13.05-3.16,26.15-3.16,4.89,0,8.43,4.3,11.38,5.01,4.47,1.07,8.8.95,11.15,3.68,2.35,2.73,3.87,6.33,3.87,9.88,0,3.04-.3,6.92-2.15,9.32-1.85,2.4-6.87,3.25-10.47,4.41ZM149.08,31.16c1.1.21,3.25-.66,4.67-.56,1.42.1,2.9,1.61,4.6,1.61,4.35,0,8.27.58,10.46-.36,2.19-.94,2.94-4.06,4.1-5.99,1.16-1.94,3.77-3.88,3.77-6.18,0-3.55-1.64-8.36-4.53-10.86-2.89-2.5-8.66-1-14.2-1-2.98,0-7.09-1.07-9.47-.41-3.39,11.18.06,12.13.61,23.76ZM149.08,60.2c3.46.8,7.68.11,11.05.11,5.39,0,9.81.13,12.64-2.3,2.83-2.43,5.59-5.78,5.59-9.36,0-2.35-2.57-4.45-3.85-6.63-1.28-2.17-2.39-5.66-5.28-6.91s-7.16-2.65-11.42-2.65c-1.85,0-3.38,3.36-4.69,3.42-1.31.06-3.86-1.17-4.66-1.02-3.11,12.14-1.03,13.02.63,25.33Z"/>
      <path class="cls-1" d="M218.05,58c-4.2,3.25-6.43,6.33-7.51,6.84-1.61.75-3.62.15-5.44.15-2.83,0-4.32-1.44-6.15-3.38-1.83-1.94-3.83-3.68-3.83-6.84,0-2,1.74-3.08,2.63-4.54,1.22-2.03,3.14-3.13,6.17-4.92,3.02-1.79,6.85-6,13.88-8.56.69-.41,1.4-.22,1.4-1.02,0-4.08-1.16-7.35-2.46-8.87-1.3-1.52-3.73-.48-6.2-.48-1.88,0-3.63-1.12-4.73-.11-1.13,1.01-.28,2.44-.28,3.75.03,1.3.85,1.28.88,2.58,0,1.37-1.85,2.89-2.55,3.63-.7.75-2.06.15-3.19.15s-3.26,1.3-3.96.52c-.7-.77,1.34-2.96,1.34-4.31,0-2.56-.15-5.31,2.48-7.45,2.62-2.15,6.62-3.45,11.36-3.45,3.64,0,7.24.05,9.57,1.27,1.76.92,2.94,3.35,3.77,5.31.54,1.28,2.21,4.12,2.21,8.08,0,6.95-3.83,6.95-3.83,13.9,0,3.9,1.46,6.39,1.61,7.26.15.88.7,1.63,1.05,1.93.34.3.96.55,1.4.55.48,0,.56-1.01.92-1.22.63-.39,2.73-2.33,4.52-4.12,1.16.47,1.49,3.5.95,4.63-3.34,4.47-8.04,5.3-11.08,5.3-1.46,0-2.55.11-3.41-.9s-1.49-3.25-1.52-5.69ZM218.73,55.78c1.52-7.65,1.18-8.08-1.24-15.5-4.5,1.79-6.9,2.55-8.21,3.3-2.35,1.31-4.83,2.29-5.84,3.72-1.01,1.43-.33,3.67-.33,5.37,0,2.15-.51,4.76.77,6.17,1.28,1.42,3.67,2.97,5.34,2.97,2.26,0,5.81-3.06,9.51-6.04Z"/>
      <path class="cls-1" d="M269.78,48.93c-1.1,5.39-2.2,10.05-5.42,12.96-3.22,2.91-7.25,3.5-11.16,3.5-4.65,0-7.82-2.4-11.28-6.31-3.46-3.9-6.3-8.4-6.3-15.04s3.05-10.81,6.88-14.83c3.83-4.02,7.52-5.2,12.89-5.2,4.02,0,7.77-1.16,10.36.97,2.59,2.13,2.38,4.88,2.38,7.17,0,1.13.2,1.53-.53,2.23-.73.7-1.25,2.92-2.56,2.92-1.76,0-2.77-2.16-3.67-3.29-.51-.63-2.32-1.46-2.48-3.22-.16-1.76-.89-1.73-1.94-2.65-1.04-.89-1.2-2.21-3.05-2.21-2.98,0-5.81.14-7.63,2.34-2.41,2.92-1.49,7.14-1.49,11.93s-1.47,9.82.93,13.56c2.4,3.74,6.6,4.48,10.69,4.48,2.92,0,5.13-.97,7.46-2.97,1.64-1.37,2.48-4.08,4.03-7.69.28-.47,1.85.63,1.87,1.35Z"/>
      <path class="cls-1" d="M287.48.95c1.03,20.34-4.6,21.04,1.84,40.35,2.23,6.68,4.56-4.05,9.76-8.79,2.21-2.03,4.6-2.71,4.95-3.25.24-.36-1.42-1.67-1.42-2.03,0-.6,1.31-2.48.81-2.92-.49-.43-.53-.81-1.67-.87-.43-.57-2.77-.88-2.06-.93,8.87-.71,8.88,1.85,17.75,2.56.71.06.19-1.4-.43-1.03-2.44.06-3.16,3.15-4.78,3.84-1.62.69-4.56-.34-6.5,1.42-5.26,4.84-8.4,2.98-8.4,10.13,0,8.46,5.79,4.86,11.05,11.49,2.92,3.67,3.26,7.14,4.27,8.12,1.43,1.4,1.76,3.71,2.83,4.13.75.3,3.98-2.2,5.83-2.2.61.53-.97,1.75-1.77,1.82-9.91.8-9.9,3.22-19.82,2.42-.8-.06-1.16-2.22-.7-2.88,1.13-.03,1.44-1.25,1.84-1.56.4-.31,1.01.82,1.01.25,0-.68-2.01-.04-3.2-1.56-6.28-8.02.21-18.61-9.79-20.57-6.67-1.31-1.33,9.57-1.33,16.37,0,2.65.53,4.6.9,5.43.37.83,1.1,1.7,1.79,2.06.68.36,2.97-.69,5.27-.66.65.47.42,4.55-.38,4.61-10.38.8-10.81,1.04-21.19.24-.8-.06.17-2.79.8-3.28,2.09,0,3.1-.92,4.15-1.42.62-.33-1.13-1.97-.8-2.66.45-.98,2.8-1.67,2.8-4.09,0-18.64-2.54-18.64-2.54-37.28,0-4.74,3.08-7.75,2.87-8.81-.21-1.06-1.99-.68-2.46-1.09-.48-.4-.27-2.75-1.05-2.75-.63,0-1.16.66-2.42,1.16-.77-.4-1.15.95-.4.52,5.7-3.28,5.55-3.31,11.54-6.01.74-.33,1-1.3,1.05-.28Z"/>
    </g>
  </g>
</svg>